# xmcd
#
# Track frame offsets:
#	150
#	14934
#	28617
#	42986
#	56225
#	68043
#	82435
#	122214
#	132649
#	148825
#	161333
#	172247
#	190815
#	201774
#	218763
#	242954
#
# Disc length: 3435
#
# Revision: 2
# Processed by: cddbd v1.5.1PL0 Copyright (c) Steve Scherf et al.
# Submitted via: EasyCDDAExtractor 7.1.0.1
# Normalized: r1:DSETVAR1
#
DISCID=050d6910
DTITLE=Various Artist - Gitanes Blues - Slide Guitar
DYEAR=2000
DGENRE=Blues
TTITLE0=Robert Nighthawk - Annie Lee Blues
TTITLE1=Elmore James - Dust My Broom
TTITLE2=Muddy Waters - I Fell Like Going Home
TTITLE3=Earl Hooker - Tanya
TTITLE4=Johnny LittleJohn - She's Too Much
TTITLE5=Hound Dog Taylor - Watch Out
TTITLE6=Big Daddy Kinsey - Goog Morning Mississippi
TTITLE7=Muddy Waters - Mean Red Spider
TTITLE8=Robert Nighthawk - My Angel
TTITLE9=Howlin' Wolf and Eric Clapton - Highway 49
TTITLE10=Joe Louis Walker - Hop On It
TTITLE11=Johnny LittleJohn - I Had A Dream
TTITLE12=Elmore James - Madison Blues
TTITLE13=Hound Dog Taylor - Sittin' Here Alone
TTITLE14=Joe Louis Walker - Rainy Nights
TTITLE15=Earl Hooker - Drivin' Wheel
EXTD=
EXTT0=
EXTT1=
EXTT2=
EXTT3=
EXTT4=
EXTT5=
EXTT6=
EXTT7=
EXTT8=
EXTT9=
EXTT10=
EXTT11=
EXTT12=
EXTT13=
EXTT14=
EXTT15=
PLAYORDER=
